<svg id="Layer_1" data-name="Layer 1" xmlns="http://www.w3.org/2000/svg" viewBox="0 0 1920 21.14483">
  <title>nier_banner</title>
  <rect width="1920" height="2"/>
  <rect x="154" y="2" width="6" height="3"/>
  <rect x="234" y="2" width="6" height="3"/>
  <rect x="74" y="2" width="6" height="3"/>
  <rect x="394" y="2" width="6" height="3"/>
  <rect x="314" y="2" width="6" height="3"/>
  <rect x="554" y="2" width="6" height="3"/>
  <rect x="634" y="2" width="6" height="3"/>
  <rect x="474" y="2" width="6" height="3"/>
  <rect x="794" y="2" width="6" height="3"/>
  <rect x="714" y="2" width="6" height="3"/>
  <rect x="1754" y="2" width="6" height="3"/>
  <rect x="1834" y="2" width="6" height="3"/>
  <rect x="1674" y="2" width="6" height="3"/>
  <rect x="954" y="2" width="6" height="3"/>
  <rect x="1034" y="2" width="6" height="3"/>
  <rect x="874" y="2" width="6" height="3"/>
  <rect x="1194" y="2" width="6" height="3"/>
  <rect x="1114" y="2" width="6" height="3"/>
  <rect x="1354" y="2" width="6" height="3"/>
  <rect x="1434" y="2" width="6" height="3"/>
  <rect x="1274" y="2" width="6" height="3"/>
  <rect x="1594" y="2" width="6" height="3"/>
  <rect x="1514" y="2" width="6" height="3"/>
  <circle cx="109.71756" cy="8.11201" r="3.11201"/>
  <circle cx="115.44534" cy="18.03282" r="3.11201"/>
  <circle cx="121.17312" cy="8.11201" r="3.11201"/>
  <circle cx="190.46756" cy="8.11201" r="3.11201"/>
  <circle cx="196.19534" cy="18.03282" r="3.11201"/>
  <circle cx="201.92312" cy="8.11201" r="3.11201"/>
  <circle cx="272.04436" cy="8.11201" r="3.11201"/>
  <circle cx="277.77214" cy="18.03282" r="3.11201"/>
  <circle cx="283.49992" cy="8.11201" r="3.11201"/>
  <circle cx="353.32957" cy="8.11201" r="3.11201"/>
  <circle cx="359.05735" cy="18.03282" r="3.11201"/>
  <circle cx="364.78513" cy="8.11201" r="3.11201"/>
  <circle cx="433.32957" cy="8.11201" r="3.11201"/>
  <circle cx="439.05735" cy="18.03282" r="3.11201"/>
  <circle cx="444.78513" cy="8.11201" r="3.11201"/>
  <circle cx="513.32042" cy="8.11201" r="3.11201"/>
  <circle cx="519.0482" cy="18.03282" r="3.11201"/>
  <circle cx="524.77598" cy="8.11201" r="3.11201"/>
  <circle cx="591.27222" cy="7.85523" r="3.11201"/>
  <circle cx="597" cy="17.77604" r="3.11201"/>
  <circle cx="602.72778" cy="7.85523" r="3.11201"/>
  <circle cx="671.27222" cy="8.11201" r="3.11201"/>
  <circle cx="677" cy="18.03282" r="3.11201"/>
  <circle cx="682.72778" cy="8.11201" r="3.11201"/>
  <circle cx="755.96756" cy="8.11201" r="3.11201"/>
  <circle cx="761.69534" cy="18.03282" r="3.11201"/>
  <circle cx="767.42312" cy="8.11201" r="3.11201"/>
  <circle cx="833.07176" cy="8.11201" r="3.11201"/>
  <circle cx="838.79955" cy="18.03282" r="3.11201"/>
  <circle cx="844.52733" cy="8.11201" r="3.11201"/>
  <circle cx="912.58468" cy="8.11201" r="3.11201"/>
  <circle cx="918.31246" cy="18.03282" r="3.11201"/>
  <circle cx="924.04024" cy="8.11201" r="3.11201"/>
  <circle cx="992.33468" cy="8.11201" r="3.11201"/>
  <circle cx="998.06246" cy="18.03282" r="3.11201"/>
  <circle cx="1003.79024" cy="8.11201" r="3.11201"/>
  <circle cx="1072.22267" cy="8.11201" r="3.11201"/>
  <circle cx="1077.95045" cy="18.03282" r="3.11201"/>
  <circle cx="1083.67824" cy="8.11201" r="3.11201"/>
  <circle cx="1154.47267" cy="8.11201" r="3.11201"/>
  <circle cx="1160.20045" cy="18.03282" r="3.11201"/>
  <circle cx="1165.92824" cy="8.11201" r="3.11201"/>
  <circle cx="1231.74489" cy="8.11201" r="3.11201"/>
  <circle cx="1237.47267" cy="18.03282" r="3.11201"/>
  <circle cx="1243.20045" cy="8.11201" r="3.11201"/>
  <circle cx="1311.3569" cy="8.11201" r="3.11201"/>
  <circle cx="1317.08468" cy="18.03282" r="3.11201"/>
  <circle cx="1322.81246" cy="8.11201" r="3.11201"/>
  <circle cx="1390.49489" cy="8.11201" r="3.11201"/>
  <circle cx="1396.22267" cy="18.03282" r="3.11201"/>
  <circle cx="1401.95045" cy="8.11201" r="3.11201"/>
  <circle cx="1551.75135" cy="8.11201" r="3.11201"/>
  <circle cx="1557.47913" cy="18.03282" r="3.11201"/>
  <circle cx="1563.20691" cy="8.11201" r="3.11201"/>
  <circle cx="1633.20045" cy="8.11201" r="3.11201"/>
  <circle cx="1638.92824" cy="18.03282" r="3.11201"/>
  <circle cx="1644.65602" cy="8.11201" r="3.11201"/>
  <circle cx="1712.45045" cy="8.11201" r="3.11201"/>
  <circle cx="1718.17824" cy="18.03282" r="3.11201"/>
  <circle cx="1723.90602" cy="8.11201" r="3.11201"/>
  <circle cx="1793.22267" cy="8.11201" r="3.11201"/>
  <circle cx="1798.95045" cy="18.03282" r="3.11201"/>
  <circle cx="1804.67824" cy="8.11201" r="3.11201"/>
  <circle cx="1469.2189" cy="8.11201" r="3.11201"/>
  <circle cx="1474.94669" cy="18.03282" r="3.11201"/>
  <circle cx="1480.67447" cy="8.11201" r="3.11201"/>
</svg>
